<svg xmlns="http://www.w3.org/2000/svg" viewBox="0 0 128 128" width="128" height="128" fill="#000"><path fill-rule="evenodd" d="M26.5 43.165a4.167 4.167 0 00-4.167 4.167V114a4.167 4.167 0 004.166 4.167h75.002a4.167 4.167 0 004.166-4.167V47.332a4.167 4.167 0 00-4.166-4.167H84.834a4.167 4.167 0 010-8.333H101.5a12.5 12.5 0 0112.5 12.5V114a12.5 12.5 0 01-12.5 12.5H26.499A12.5 12.5 0 0114 114V47.332a12.5 12.5 0 0112.5-12.5h16.667a4.167 4.167 0 010 8.333z"/><path fill-rule="evenodd" d="M61.05 91.95a4.167 4.167 0 005.9 0l25-25a4.172 4.172 0 00-5.9-5.901L68.167 78.941V5.665a4.167 4.167 0 00-8.334 0V78.94L41.95 61.049a4.172 4.172 0 10-5.9 5.9z"/></svg>